<svg width="71" height="71" viewBox="0 0 71 71" fill="none" xmlns="http://www.w3.org/2000/svg">
<mask id="path-1-inside-1_5_2428" fill="white">
<path d="M0.837376 19.4846C0.374906 10.6601 7.15363 3.1316 15.9781 2.66913L50.9301 0.837376C59.7546 0.374906 67.2831 7.15363 67.7456 15.9781L69.5773 50.9301C70.0398 59.7546 63.2611 67.2831 54.4366 67.7456L19.4846 69.5773C10.6601 70.0398 3.1316 63.2611 2.66913 54.4366L0.837376 19.4846Z"/>
</mask>
<path d="M0.837376 19.4846C0.374906 10.6601 7.15363 3.1316 15.9781 2.66913L50.9301 0.837376C59.7546 0.374906 67.2831 7.15363 67.7456 15.9781L69.5773 50.9301C70.0398 59.7546 63.2611 67.2831 54.4366 67.7456L19.4846 69.5773C10.6601 70.0398 3.1316 63.2611 2.66913 54.4366L0.837376 19.4846Z" fill="#0C0D11"/>
<path d="M15.9781 2.66913L16.0618 4.26694L51.0138 2.43518L50.9301 0.837376L50.8464 -0.760432L15.8943 1.07133L15.9781 2.66913ZM67.7456 15.9781L66.1477 16.0618L67.9795 51.0138L69.5773 50.9301L71.1751 50.8464L69.3434 15.8943L67.7456 15.9781ZM54.4366 67.7456L54.3529 66.1477L19.4008 67.9795L19.4846 69.5773L19.5683 71.1751L54.5204 69.3434L54.4366 67.7456ZM2.66913 54.4366L4.26694 54.3529L2.43518 19.4008L0.837376 19.4846L-0.760432 19.5683L1.07133 54.5204L2.66913 54.4366ZM19.4846 69.5773L19.4008 67.9795C11.4588 68.3957 4.68316 62.2949 4.26694 54.3529L2.66913 54.4366L1.07133 54.5204C1.58004 64.2272 9.86143 71.6838 19.5683 71.1751L19.4846 69.5773ZM69.5773 50.9301L67.9795 51.0138C68.3957 58.9558 62.2949 65.7315 54.3529 66.1477L54.4366 67.7456L54.5204 69.3434C64.2272 68.8346 71.6838 60.5533 71.1751 50.8464L69.5773 50.9301ZM50.9301 0.837376L51.0138 2.43518C58.9558 2.01896 65.7315 8.11981 66.1477 16.0618L67.7456 15.9781L69.3434 15.8943C68.8346 6.18744 60.5533 -1.26915 50.8464 -0.760432L50.9301 0.837376ZM15.9781 2.66913L15.8943 1.07133C6.18744 1.58004 -1.26915 9.86143 -0.760432 19.5683L0.837376 19.4846L2.43518 19.4008C2.01896 11.4588 8.11981 4.68316 16.0618 4.26694L15.9781 2.66913Z" fill="#F4B942" fill-opacity="0.25" mask="url(#path-1-inside-1_5_2428)"/>
<g clip-path="url(#clip0_5_2428)">
<path d="M45.3011 23.997L23.997 25.1135C22.5263 25.1906 21.3965 26.4454 21.4735 27.9161L22.3109 43.8942C22.388 45.3649 23.6428 46.4947 25.1135 46.4176L46.4176 45.3011C47.8883 45.224 49.0181 43.9693 48.941 42.4986L48.1037 26.5205C48.0266 25.0497 46.7718 23.92 45.3011 23.997Z" stroke="#F4B942" stroke-width="2.66667" stroke-linecap="round" stroke-linejoin="round"/>
<path d="M48.1736 27.8521L36.6277 36.0676C36.2301 36.3467 35.762 36.5082 35.2769 36.5336C34.7918 36.5591 34.3094 36.4474 33.8848 36.2114L21.5435 29.2477" stroke="#F4B942" stroke-width="2.66667" stroke-linecap="round" stroke-linejoin="round"/>
</g>
<defs>
<clipPath id="clip0_5_2428">
<rect width="32" height="32" fill="white" transform="translate(18.3921 20.0667) rotate(-3)"/>
</clipPath>
</defs>
</svg>
