<svg width="71" height="71" viewBox="0 0 71 71" fill="none" xmlns="http://www.w3.org/2000/svg">
<mask id="path-1-inside-1_5_2424" fill="white">
<path d="M2.66913 15.9781C3.1316 7.15363 10.6601 0.374906 19.4846 0.837376L54.4366 2.66913C63.2611 3.1316 70.0398 10.6601 69.5773 19.4846L67.7456 54.4366C67.2831 63.2611 59.7546 70.0398 50.9301 69.5773L15.9781 67.7456C7.15363 67.2831 0.374906 59.7546 0.837376 50.9301L2.66913 15.9781Z"/>
</mask>
<path d="M2.66913 15.9781C3.1316 7.15363 10.6601 0.374906 19.4846 0.837376L54.4366 2.66913C63.2611 3.1316 70.0398 10.6601 69.5773 19.4846L67.7456 54.4366C67.2831 63.2611 59.7546 70.0398 50.9301 69.5773L15.9781 67.7456C7.15363 67.2831 0.374906 59.7546 0.837376 50.9301L2.66913 15.9781Z" fill="#0C0D11"/>
<path d="M19.4846 0.837376L19.4008 2.43518L54.3529 4.26694L54.4366 2.66913L54.5204 1.07133L19.5683 -0.760432L19.4846 0.837376ZM69.5773 19.4846L67.9795 19.4008L66.1477 54.3529L67.7456 54.4366L69.3434 54.5204L71.1751 19.5683L69.5773 19.4846ZM50.9301 69.5773L51.0138 67.9795L16.0618 66.1477L15.9781 67.7456L15.8943 69.3434L50.8464 71.1751L50.9301 69.5773ZM0.837376 50.9301L2.43518 51.0138L4.26694 16.0618L2.66913 15.9781L1.07133 15.8943L-0.760432 50.8464L0.837376 50.9301ZM15.9781 67.7456L16.0618 66.1477C8.11981 65.7315 2.01896 58.9558 2.43518 51.0138L0.837376 50.9301L-0.760432 50.8464C-1.26915 60.5533 6.18744 68.8346 15.8943 69.3434L15.9781 67.7456ZM67.7456 54.4366L66.1477 54.3529C65.7315 62.2949 58.9558 68.3957 51.0138 67.9795L50.9301 69.5773L50.8464 71.1751C60.5533 71.6838 68.8346 64.2272 69.3434 54.5204L67.7456 54.4366ZM54.4366 2.66913L54.3529 4.26694C62.2949 4.68316 68.3957 11.4588 67.9795 19.4008L69.5773 19.4846L71.1751 19.5683C71.6838 9.86143 64.2272 1.58004 54.5204 1.07133L54.4366 2.66913ZM19.4846 0.837376L19.5683 -0.760432C9.86143 -1.26915 1.58004 6.18744 1.07133 15.8943L2.66913 15.9781L4.26694 16.0618C4.68316 8.11981 11.4588 2.01896 19.4008 2.43518L19.4846 0.837376Z" fill="#D63B2A" fill-opacity="0.25" mask="url(#path-1-inside-1_5_2424)"/>
<g clip-path="url(#clip0_5_2424)">
<path d="M38.5037 48.7318L38.7829 43.4057C39.0555 41.7475 38.665 40.0485 37.6956 38.6757C41.6901 38.885 45.8242 36.4314 46.0684 31.7711C46.2622 30.1123 45.882 28.4501 44.9812 27.041C45.4342 25.5294 45.518 23.9315 45.2254 22.3808C45.2254 22.3808 43.8939 22.311 41.1262 24.1687C37.6459 23.3187 34.0242 23.1289 30.4741 23.6104C27.9158 21.4736 26.5843 21.4038 26.5843 21.4038C26.1046 22.9141 26.0209 24.5119 26.3401 26.0641C25.2997 27.366 24.7428 28.9882 24.7643 30.6546C24.5201 35.3149 28.375 38.1872 32.3696 38.3966C31.8161 39.0218 31.3909 39.7472 31.1226 40.5342C30.8544 41.3213 30.7439 42.1566 30.7938 42.9871L30.5147 48.3131" stroke="#F4B942" stroke-width="2.66667" stroke-linecap="round" stroke-linejoin="round"/>
<path d="M30.7939 42.9871C24.6493 45.3354 24.276 39.9751 21.613 39.8356" stroke="#F4B942" stroke-width="2.66667" stroke-linecap="round" stroke-linejoin="round"/>
</g>
<defs>
<clipPath id="clip0_5_2424">
<rect width="32" height="32" fill="white" transform="translate(20.0666 18.392) rotate(3)"/>
</clipPath>
</defs>
</svg>
