<svg width="71" height="71" viewBox="0 0 71 71" fill="none" xmlns="http://www.w3.org/2000/svg">
<mask id="path-1-inside-1_5_2417" fill="white">
<path d="M2.66913 15.9781C3.1316 7.15363 10.6601 0.374906 19.4846 0.837376L54.4366 2.66913C63.2611 3.1316 70.0398 10.6601 69.5773 19.4846L67.7456 54.4366C67.2831 63.2611 59.7546 70.0398 50.9301 69.5773L15.9781 67.7456C7.15363 67.2831 0.374906 59.7546 0.837376 50.9301L2.66913 15.9781Z"/>
</mask>
<path d="M2.66913 15.9781C3.1316 7.15363 10.6601 0.374906 19.4846 0.837376L54.4366 2.66913C63.2611 3.1316 70.0398 10.6601 69.5773 19.4846L67.7456 54.4366C67.2831 63.2611 59.7546 70.0398 50.9301 69.5773L15.9781 67.7456C7.15363 67.2831 0.374906 59.7546 0.837376 50.9301L2.66913 15.9781Z" fill="#0C0D11"/>
<path d="M19.4846 0.837376L19.4008 2.43518L54.3529 4.26694L54.4366 2.66913L54.5204 1.07133L19.5683 -0.760432L19.4846 0.837376ZM69.5773 19.4846L67.9795 19.4008L66.1477 54.3529L67.7456 54.4366L69.3434 54.5204L71.1751 19.5683L69.5773 19.4846ZM50.9301 69.5773L51.0138 67.9795L16.0618 66.1477L15.9781 67.7456L15.8943 69.3434L50.8464 71.1751L50.9301 69.5773ZM0.837376 50.9301L2.43518 51.0138L4.26694 16.0618L2.66913 15.9781L1.07133 15.8943L-0.760432 50.8464L0.837376 50.9301ZM15.9781 67.7456L16.0618 66.1477C8.11981 65.7315 2.01896 58.9558 2.43518 51.0138L0.837376 50.9301L-0.760432 50.8464C-1.26915 60.5533 6.18744 68.8346 15.8943 69.3434L15.9781 67.7456ZM67.7456 54.4366L66.1477 54.3529C65.7315 62.2949 58.9558 68.3957 51.0138 67.9795L50.9301 69.5773L50.8464 71.1751C60.5533 71.6838 68.8346 64.2272 69.3434 54.5204L67.7456 54.4366ZM54.4366 2.66913L54.3529 4.26694C62.2949 4.68316 68.3957 11.4588 67.9795 19.4008L69.5773 19.4846L71.1751 19.5683C71.6838 9.86143 64.2272 1.58004 54.5204 1.07133L54.4366 2.66913ZM19.4846 0.837376L19.5683 -0.760432C9.86143 -1.26915 1.58004 6.18744 1.07133 15.8943L2.66913 15.9781L4.26694 16.0618C4.68316 8.11981 11.4588 2.01896 19.4008 2.43518L19.4846 0.837376Z" fill="#BD30FF" fill-opacity="0.25" mask="url(#path-1-inside-1_5_2417)"/>
<g clip-path="url(#clip0_5_2417)">
<path d="M22.2093 41.2021C21.5092 36.7637 21.7469 32.2279 22.9071 27.887C23.0527 27.4476 23.3101 27.0537 23.6541 26.744C23.9981 26.4343 24.4167 26.2194 24.8689 26.1206C32.0724 25.3117 39.3598 25.6937 46.4393 27.251C46.8787 27.3966 47.2726 27.654 47.5823 27.998C47.892 28.342 48.1069 28.7607 48.2057 29.2128C48.9058 33.6512 48.6681 38.187 47.5079 42.5279C47.3623 42.9673 47.1049 43.3612 46.7609 43.6709C46.4169 43.9806 45.9983 44.1955 45.5461 44.2943C38.3426 45.1034 31.0551 44.7215 23.9757 43.1639C23.5363 43.0183 23.1424 42.7608 22.8327 42.4169C22.523 42.0729 22.3081 41.6542 22.2093 41.2021Z" stroke="#D62A5B" stroke-width="2.66667" stroke-linecap="round" stroke-linejoin="round"/>
<path d="M32.3349 39.0624L39.2018 35.4168L32.7536 31.0734L32.3349 39.0624Z" stroke="#D62A5B" stroke-width="2.66667" stroke-linecap="round" stroke-linejoin="round"/>
</g>
<defs>
<clipPath id="clip0_5_2417">
<rect width="32" height="32" fill="white" transform="translate(20.0666 18.392) rotate(3)"/>
</clipPath>
</defs>
</svg>
