<svg width="71" height="71" viewBox="0 0 71 71" fill="none" xmlns="http://www.w3.org/2000/svg">
<mask id="path-1-inside-1_5_2421" fill="white">
<path d="M0.837376 19.4846C0.374906 10.6601 7.15363 3.1316 15.9781 2.66913L50.9301 0.837376C59.7546 0.374906 67.2831 7.15363 67.7456 15.9781L69.5773 50.9301C70.0398 59.7546 63.2611 67.2831 54.4366 67.7456L19.4846 69.5773C10.6601 70.0398 3.1316 63.2611 2.66913 54.4366L0.837376 19.4846Z"/>
</mask>
<path d="M0.837376 19.4846C0.374906 10.6601 7.15363 3.1316 15.9781 2.66913L50.9301 0.837376C59.7546 0.374906 67.2831 7.15363 67.7456 15.9781L69.5773 50.9301C70.0398 59.7546 63.2611 67.2831 54.4366 67.7456L19.4846 69.5773C10.6601 70.0398 3.1316 63.2611 2.66913 54.4366L0.837376 19.4846Z" fill="#0C0D11"/>
<path d="M15.9781 2.66913L16.0618 4.26694L51.0138 2.43518L50.9301 0.837376L50.8464 -0.760432L15.8943 1.07133L15.9781 2.66913ZM67.7456 15.9781L66.1477 16.0618L67.9795 51.0138L69.5773 50.9301L71.1751 50.8464L69.3434 15.8943L67.7456 15.9781ZM54.4366 67.7456L54.3529 66.1477L19.4008 67.9795L19.4846 69.5773L19.5683 71.1751L54.5204 69.3434L54.4366 67.7456ZM2.66913 54.4366L4.26694 54.3529L2.43518 19.4008L0.837376 19.4846L-0.760432 19.5683L1.07133 54.5204L2.66913 54.4366ZM19.4846 69.5773L19.4008 67.9795C11.4588 68.3957 4.68316 62.2949 4.26694 54.3529L2.66913 54.4366L1.07133 54.5204C1.58004 64.2272 9.86143 71.6838 19.5683 71.1751L19.4846 69.5773ZM69.5773 50.9301L67.9795 51.0138C68.3957 58.9558 62.2949 65.7315 54.3529 66.1477L54.4366 67.7456L54.5204 69.3434C64.2272 68.8346 71.6838 60.5533 71.1751 50.8464L69.5773 50.9301ZM50.9301 0.837376L51.0138 2.43518C58.9558 2.01896 65.7315 8.11981 66.1477 16.0618L67.7456 15.9781L69.3434 15.8943C68.8346 6.18744 60.5533 -1.26915 50.8464 -0.760432L50.9301 0.837376ZM15.9781 2.66913L15.8943 1.07133C6.18744 1.58004 -1.26915 9.86143 -0.760432 19.5683L0.837376 19.4846L2.43518 19.4008C2.01896 11.4588 8.11981 4.68316 16.0618 4.26694L15.9781 2.66913Z" fill="#8E4862" fill-opacity="0.25" mask="url(#path-1-inside-1_5_2421)"/>
<path d="M43.0191 44.1441L31.7013 44.7373C29.9728 44.8274 28.2533 44.4351 26.7349 43.6042C25.2166 42.7734 23.9591 41.5367 23.1031 40.0323C22.2472 38.5279 21.8264 36.8151 21.8878 35.0854C21.9492 33.3556 22.4904 31.677 23.451 30.2372C24.4115 28.7973 25.7535 27.6529 27.3269 26.9318C28.9004 26.2107 30.6435 25.9414 32.3612 26.1539C34.079 26.3664 35.7038 27.0524 37.0541 28.1352C38.4044 29.218 39.4271 30.6549 40.0077 32.2855L42.3911 32.1606C43.9802 32.0773 45.5373 32.6287 46.7199 33.6935C47.9025 34.7583 48.6136 36.2492 48.6969 37.8383C48.7802 39.4274 48.2288 40.9846 47.164 42.1671C46.0992 43.3497 44.6083 44.0608 43.0191 44.1441Z" stroke="#F4B942" stroke-width="2.66667" stroke-linecap="round" stroke-linejoin="round"/>
</svg>
