<svg width="71" height="71" viewBox="0 0 71 71" fill="none" xmlns="http://www.w3.org/2000/svg">
<mask id="path-1-inside-1_5_2412" fill="white">
<path d="M0.837376 19.4846C0.374906 10.6601 7.15363 3.1316 15.9781 2.66913L50.9301 0.837376C59.7546 0.374906 67.2831 7.15363 67.7456 15.9781L69.5773 50.9301C70.0398 59.7546 63.2611 67.2831 54.4366 67.7456L19.4846 69.5773C10.6601 70.0398 3.1316 63.2611 2.66913 54.4366L0.837376 19.4846Z"/>
</mask>
<path d="M0.837376 19.4846C0.374906 10.6601 7.15363 3.1316 15.9781 2.66913L50.9301 0.837376C59.7546 0.374906 67.2831 7.15363 67.7456 15.9781L69.5773 50.9301C70.0398 59.7546 63.2611 67.2831 54.4366 67.7456L19.4846 69.5773C10.6601 70.0398 3.1316 63.2611 2.66913 54.4366L0.837376 19.4846Z" fill="#0C0D11"/>
<path d="M15.9781 2.66913L16.0618 4.26694L51.0138 2.43518L50.9301 0.837376L50.8464 -0.760432L15.8943 1.07133L15.9781 2.66913ZM67.7456 15.9781L66.1477 16.0618L67.9795 51.0138L69.5773 50.9301L71.1751 50.8464L69.3434 15.8943L67.7456 15.9781ZM54.4366 67.7456L54.3529 66.1477L19.4008 67.9795L19.4846 69.5773L19.5683 71.1751L54.5204 69.3434L54.4366 67.7456ZM2.66913 54.4366L4.26694 54.3529L2.43518 19.4008L0.837376 19.4846L-0.760432 19.5683L1.07133 54.5204L2.66913 54.4366ZM19.4846 69.5773L19.4008 67.9795C11.4588 68.3957 4.68316 62.2949 4.26694 54.3529L2.66913 54.4366L1.07133 54.5204C1.58004 64.2272 9.86143 71.6838 19.5683 71.1751L19.4846 69.5773ZM69.5773 50.9301L67.9795 51.0138C68.3957 58.9558 62.2949 65.7315 54.3529 66.1477L54.4366 67.7456L54.5204 69.3434C64.2272 68.8346 71.6838 60.5533 71.1751 50.8464L69.5773 50.9301ZM50.9301 0.837376L51.0138 2.43518C58.9558 2.01896 65.7315 8.11981 66.1477 16.0618L67.7456 15.9781L69.3434 15.8943C68.8346 6.18744 60.5533 -1.26915 50.8464 -0.760432L50.9301 0.837376ZM15.9781 2.66913L15.8943 1.07133C6.18744 1.58004 -1.26915 9.86143 -0.760432 19.5683L0.837376 19.4846L2.43518 19.4008C2.01896 11.4588 8.11981 4.68316 16.0618 4.26694L15.9781 2.66913Z" fill="#14D4FF" fill-opacity="0.25" mask="url(#path-1-inside-1_5_2412)"/>
<g clip-path="url(#clip0_5_2412)">
<path d="M40.2547 29.6022C42.3735 29.4912 44.4496 30.2264 46.0264 31.6461C47.6031 33.0658 48.5513 35.0538 48.6624 37.1726L49.1509 46.4931L43.8248 46.7722L43.3364 37.4517C43.2993 36.7454 42.9833 36.0828 42.4577 35.6095C41.9321 35.1363 41.2401 34.8912 40.5338 34.9283C39.8275 34.9653 39.1649 35.2813 38.6916 35.8069C38.2184 36.3325 37.9733 37.0246 38.0103 37.7308L38.4988 47.0514L33.1728 47.3305L32.6843 38.01C32.5733 35.8911 33.3085 33.815 34.7282 32.2382C36.1479 30.6615 38.1358 29.7133 40.2547 29.6022Z" stroke="#14D4FF" stroke-width="2.66667" stroke-linecap="round" stroke-linejoin="round"/>
<path d="M27.0091 31.6316L21.6831 31.9107L22.5205 47.8888L27.8465 47.6096L27.0091 31.6316Z" stroke="#14D4FF" stroke-width="2.66667" stroke-linecap="round" stroke-linejoin="round"/>
<path d="M24.137 27.7766C25.6077 27.6995 26.7375 26.4448 26.6604 24.974C26.5833 23.5033 25.3286 22.3735 23.8578 22.4506C22.3871 22.5276 21.2573 23.7824 21.3344 25.2531C21.4115 26.7239 22.6662 27.8537 24.137 27.7766Z" stroke="#14D4FF" stroke-width="2.66667" stroke-linecap="round" stroke-linejoin="round"/>
</g>
<defs>
<clipPath id="clip0_5_2412">
<rect width="32" height="32" fill="white" transform="translate(18.3921 20.0667) rotate(-3)"/>
</clipPath>
</defs>
</svg>
