<svg width="436" height="216" viewBox="0 0 436 216" fill="none" xmlns="http://www.w3.org/2000/svg">
<path d="M390.59 209.363C377.645 209.363 365.77 206.152 354.966 199.731C342.326 192.188 336.007 182.301 336.007 170.069C336.007 159.978 340.95 152.486 350.838 147.593C358.482 143.72 367.911 141.783 379.123 141.783C393.19 141.783 405.319 144.536 415.512 150.04C429.171 157.481 436 166.247 436 176.338C436 186.225 430.7 194.379 420.099 200.801C410.823 206.509 400.987 209.363 390.59 209.363ZM393.495 173.891C388.705 173.891 384.475 175.318 380.805 178.172C376.932 181.332 374.995 185.257 374.995 189.945C374.995 194.532 377.39 198.049 382.181 200.495C385.952 202.534 390.335 203.553 395.33 203.553C400.528 203.553 404.81 202.228 408.173 199.578C411.945 196.724 413.83 192.799 413.83 187.805C413.83 183.116 411.486 179.498 406.797 176.949C403.026 174.911 398.592 173.891 393.495 173.891Z" fill="#E8E0D0"/>
<path d="M309.774 125.576C306.207 125.576 303.149 124.761 300.6 123.13C297.441 121.193 295.861 118.594 295.861 115.332C295.861 112.784 297.644 110.542 301.212 108.605C304.372 106.974 307.328 106.159 310.08 106.159C313.444 106.159 316.502 106.872 319.254 108.299C322.617 110.032 324.299 112.427 324.299 115.485C324.299 118.849 322.668 121.448 319.407 123.283C316.654 124.812 313.444 125.576 309.774 125.576ZM302.282 207.069L303.047 163.341L326.593 161.813L332.861 208.14L302.282 207.069Z" fill="#E8E0D0"/>
<path d="M251.681 209.822C244.138 209.822 237.207 207.732 230.887 203.553C223.14 198.456 219.267 191.678 219.267 183.218C219.267 175.064 220.235 168.387 222.172 163.189C224.618 156.767 228.798 151.518 234.709 147.441C238.379 144.892 244.444 143.618 252.904 143.618C258 143.618 263.403 144.077 269.111 144.994C271.047 145.3 273.494 145.81 276.45 146.523L273.698 105.089L285.471 110.44L288.987 202.33C284.706 203.961 281.19 205.184 278.437 205.999C269.366 208.548 260.447 209.822 251.681 209.822ZM278.896 171.445L270.64 171.904C260.651 172.719 253.77 174.962 249.999 178.631C247.655 180.874 246.482 184.339 246.482 189.028C246.482 191.372 247.451 193.513 249.387 195.45C251.324 197.284 253.465 198.456 255.809 198.966C257.746 199.476 259.937 199.731 262.383 199.731C266.155 199.731 270.334 199.221 274.921 198.202C276.654 197.794 278.59 197.233 280.731 196.52L278.896 171.445Z" fill="#E8E0D0"/>
<path d="M207.632 206.611L194.942 207.834L194.483 195.144C192.444 198.508 190.049 201.463 187.297 204.012C185.156 205.948 182.047 208.395 177.97 211.351C173.893 214.307 170.478 215.785 167.726 215.785C164.668 215.785 161.814 215.173 159.164 213.95C158.247 213.542 157.38 213.033 156.565 212.421C152.488 209.465 150.449 203.604 150.449 194.838C150.449 187.091 150.551 181.587 150.755 178.325C150.857 176.185 151.061 173.993 151.366 171.751L154.73 142.701L172.619 138.573L171.396 207.375L189.743 194.379L198.152 135.209L211.913 131.692L207.632 206.611Z" fill="#E8E0D0"/>
<path d="M121.067 213.338L113.117 194.838L73.8227 198.966L66.4837 212.727L60.5208 207.987L105.166 105.089L148.435 201.412L121.067 213.338ZM96.604 155.544L77.3393 192.086L110.67 188.569L96.604 155.544Z" fill="#E8E0D0"/>
<path d="M60.6723 169.889C60.2244 169.931 58.374 169.81 55.1214 169.528C53.4803 169.227 50.5205 167.918 46.2418 165.601C44.8156 164.828 42.7722 163.661 40.1118 162.098L40.8346 160.483C43.2096 161.749 45.2412 162.789 46.9293 163.602C51.1205 165.669 53.504 166.676 54.08 166.623C54.4058 166.658 54.8247 166.651 55.3367 166.604C56.7446 166.475 57.6255 165.878 57.9793 164.813C58.281 163.881 57.7996 162.506 56.5353 160.686C55.2423 159.256 51.4951 156.051 45.2938 151.071L38.5074 145.693C35.3748 143.205 33.3484 141.52 32.4282 140.637C30.023 138.341 28.5432 136.283 27.9887 134.462C27.7438 133.904 27.5949 133.337 27.5419 132.761C27.389 131.097 27.879 129.406 29.0119 127.689C30.1448 125.971 31.4586 124.818 32.9533 124.229C34.4421 123.576 36.2425 123.152 38.3543 122.958C41.1061 122.705 43.5559 123.029 45.7037 123.928C48.5907 125.147 51.5252 127.233 54.507 130.186C55.0719 130.715 55.6515 131.404 56.2457 132.253L54.9646 134.113C50.5559 129.678 46.8796 127.596 43.9359 127.866C43.2319 127.931 42.5368 128.091 41.8505 128.348C40.1932 129.275 39.4322 130.474 39.5675 131.946C39.7203 133.61 40.7199 135.357 42.566 137.188C46.5261 140.955 51.6597 145.904 57.9669 152.036C61.9387 155.93 64.5277 158.822 65.734 160.712C66.1304 161.515 66.3786 162.46 66.4786 163.548C66.5844 164.7 66.5156 165.706 66.272 166.568C65.6746 168.494 63.8081 169.601 60.6723 169.889Z" fill="#A2BBCF"/>
<path d="M9.85554 122.092C7.61572 122.298 5.64883 121.962 3.95486 121.085C1.85929 120.052 0.71741 118.511 0.529229 116.463C0.382212 114.863 1.37275 113.353 3.50084 111.931C5.39059 110.725 7.1994 110.042 8.92726 109.883C11.0391 109.689 13.0001 109.961 14.8103 110.698C17.0221 111.592 18.2162 112.999 18.3926 114.918C18.5867 117.03 17.7127 118.756 15.7707 120.096C14.1311 121.215 12.1594 121.88 9.85554 122.092ZM9.85351 173.688L7.81066 146.19L22.5053 143.872L29.1137 172.596L9.85351 173.688Z" fill="#A2BBCF"/>
<path d="M356.716 97.6999L354.269 98.6172C348.052 99.7385 342.497 100.299 337.604 100.299C325.372 100.299 316.453 96.5277 310.847 88.9849C308.299 85.5192 306.464 81.5949 305.343 77.2119C304.833 75.1733 304.579 72.9309 304.579 70.4846C304.579 61.6167 307.178 53.5642 312.376 46.3272C315.944 41.3326 321.856 36.1342 330.112 30.7319C332.66 28.9991 336.279 26.9095 340.968 24.4632L340.509 38.3766C337.349 39.8037 334.699 41.0778 332.558 42.199C325.016 46.1743 319.358 50.6592 315.587 55.6538C313.345 58.7117 312.223 62.3302 312.223 66.5093C321.091 62.2282 330.673 57.7943 340.968 53.2074C344.229 51.7804 349.988 49.2322 358.245 45.5627C357.633 48.8245 357.225 51.4237 357.022 53.3603L356.104 59.9348C351.008 61.8715 342.598 65.2861 330.877 70.1788C326.086 72.2174 320.887 74.4598 315.281 76.9062C315.485 78.639 315.74 80.015 316.046 81.0343C317.677 86.7424 321.499 90.0551 327.513 90.9725C330.061 91.3802 333.119 91.5841 336.687 91.5841C338.623 91.5841 341.07 91.1764 344.025 90.3609C344.535 90.259 349.53 88.6281 359.009 85.4683C359.009 89.2397 358.245 93.3169 356.716 97.6999Z" fill="#E8E0D0"/>
<path d="M289.4 102.44C288.686 102.44 285.781 101.981 280.685 101.064C278.137 100.35 273.652 97.8528 267.23 93.5717C265.089 92.1447 262.032 90.0042 258.056 87.1501L259.432 84.7038C263 87.0482 266.058 88.9849 268.606 90.5138C274.926 94.3872 278.544 96.3238 279.462 96.3238C279.971 96.4258 280.634 96.4767 281.449 96.4767C283.692 96.4767 285.17 95.6613 285.883 94.0304C286.495 92.6034 285.934 90.3609 284.201 87.303C282.367 84.8567 276.913 79.2506 267.842 70.4846L257.903 61.0051C253.317 56.6221 250.361 53.6662 249.036 52.1372C245.57 48.1619 243.531 44.6963 242.92 41.7403C242.614 40.823 242.461 39.9056 242.461 38.9882C242.461 36.3381 243.48 33.7388 245.519 31.1906C247.558 28.6423 249.8 27.0115 252.246 26.298C254.693 25.4825 257.598 25.0748 260.961 25.0748C265.344 25.0748 269.167 25.9412 272.428 27.674C276.811 30.0184 281.143 33.7388 285.425 38.8353C286.24 39.7527 287.055 40.9249 287.871 42.3519L285.577 45.104C279.258 37.4593 273.754 33.6369 269.065 33.6369C267.944 33.6369 266.822 33.7898 265.701 34.0956C262.949 35.3188 261.573 37.1025 261.573 39.4469C261.573 42.0971 262.898 45.0021 265.548 48.1619C271.256 54.6854 278.646 63.2476 287.718 73.8483C293.426 80.5757 297.095 85.5193 298.726 88.6791C299.236 90.0042 299.491 91.5331 299.491 93.2659C299.491 95.1007 299.236 96.6806 298.726 98.0057C297.503 100.962 294.394 102.44 289.4 102.44Z" fill="#E8E0D0"/>
<path d="M191.627 103.357C178.682 103.357 166.808 100.146 156.003 93.7246C143.364 86.1818 137.044 76.2946 137.044 64.063C137.044 53.9719 141.988 46.4801 151.875 41.5874C159.52 37.7141 168.948 35.7774 180.16 35.7774C194.227 35.7774 206.356 38.5295 216.549 44.0337C230.208 51.4746 237.037 60.2406 237.037 70.3317C237.037 80.2189 231.737 88.3733 221.136 94.7948C211.861 100.503 202.024 103.357 191.627 103.357ZM194.532 67.8853C189.742 67.8853 185.512 69.3124 181.842 72.1664C177.969 75.3262 176.032 79.2505 176.032 83.9393C176.032 88.5262 178.428 92.0427 183.218 94.4891C186.99 96.5277 191.373 97.547 196.367 97.547C201.566 97.547 205.847 96.2219 209.21 93.5717C212.982 90.7177 214.868 86.7934 214.868 81.7988C214.868 77.11 212.523 73.4915 207.834 70.9432C204.063 68.9046 199.629 67.8853 194.532 67.8853Z" fill="#E8E0D0"/>
<path d="M124.53 31.1906L119.485 30.579C119.485 42.5048 116.783 56.1124 111.381 71.4019C108.629 79.0467 104.603 85.6721 99.3024 91.2783C92.4731 98.5153 86.4592 102.44 81.2608 103.051C79.6299 103.255 78.6616 103.357 78.3558 103.357C74.2786 103.357 70.2524 101.93 66.2771 99.0759C61.5883 95.7122 57.3582 88.9339 53.5868 78.7409C52.0579 74.5618 50.5289 69.0066 49 62.0753C49.2038 62.3811 51.9559 61.158 57.2563 58.4059C58.6833 57.5904 61.3845 56.1634 65.3597 54.1248C66.6848 60.8522 68.5705 66.8151 71.0168 72.0135C74.6863 79.7602 78.8654 83.6335 83.5542 83.6335C88.5488 83.6335 93.5943 79.9131 98.6908 72.4722C103.074 66.2545 105.826 60.2406 106.947 54.4306C108.782 45.3588 109.699 37.2044 109.699 29.9674L78.3558 27.674L75.2979 0L130.34 9.78528L124.53 31.1906Z" fill="#E8E0D0"/>
</svg>
