<svg width="101" height="40" viewBox="0 0 101 40" fill="none" xmlns="http://www.w3.org/2000/svg">
<mask id="path-1-inside-1_5_2468" fill="white">
<path d="M0 19.6C0 8.77522 8.77522 0 19.6 0H81.2C92.0248 0 100.8 8.77522 100.8 19.6C100.8 30.4248 92.0248 39.2 81.2 39.2H19.6C8.77521 39.2 0 30.4248 0 19.6Z"/>
</mask>
<path d="M0 19.6M100.8 19.6M100.8 19.6M0 19.6M19.6 0V1.6H81.2V0V-1.6H19.6V0ZM100.8 19.6M81.2 39.2V37.6H19.6V39.2V40.8H81.2V39.2ZM0 19.6M19.6 39.2V37.6C9.65887 37.6 1.6 29.5411 1.6 19.6H0H-1.6C-1.6 31.3084 7.89156 40.8 19.6 40.8V39.2ZM100.8 19.6H99.2C99.2 29.5411 91.1411 37.6 81.2 37.6V39.2V40.8C92.9084 40.8 102.4 31.3084 102.4 19.6H100.8ZM81.2 0V1.6C91.1411 1.6 99.2 9.65888 99.2 19.6H100.8H102.4C102.4 7.89157 92.9084 -1.6 81.2 -1.6V0ZM19.6 0V-1.6C7.89156 -1.6 -1.6 7.89156 -1.6 19.6H0H1.6C1.6 9.65888 9.65888 1.6 19.6 1.6V0Z" fill="#E8E0D0" mask="url(#path-1-inside-1_5_2468)"/>
<path d="M25.6003 24.2667L20.9336 19.6L25.6003 14.9333" stroke="#E8E0D0" stroke-width="1.33333" stroke-linecap="round" stroke-linejoin="round"/>
<path d="M30.2669 19.6H20.9336" stroke="#E8E0D0" stroke-width="1.33333" stroke-linecap="round" stroke-linejoin="round"/>
<path d="M43.9502 25.2V15.596H49.4382C49.9422 15.596 50.3949 15.694 50.7962 15.89C51.2069 16.086 51.5289 16.3613 51.7622 16.716C51.9956 17.0707 52.1122 17.486 52.1122 17.962C52.1122 18.3447 52.0422 18.6853 51.9022 18.984C51.7622 19.2827 51.5709 19.53 51.3282 19.726C51.0949 19.922 50.8289 20.0667 50.5302 20.16V20.216C50.8849 20.2907 51.1976 20.4307 51.4682 20.636C51.7482 20.8413 51.9676 21.1073 52.1262 21.434C52.2942 21.7513 52.3782 22.1293 52.3782 22.568C52.3782 23.1467 52.2429 23.632 51.9722 24.024C51.7109 24.416 51.3609 24.71 50.9222 24.906C50.4836 25.102 49.9936 25.2 49.4522 25.2H43.9502ZM46.0362 23.492H49.0462C49.3916 23.492 49.6716 23.394 49.8862 23.198C50.1102 23.002 50.2222 22.6987 50.2222 22.288C50.2222 22.0453 50.1756 21.8353 50.0822 21.658C49.9889 21.4807 49.8489 21.3453 49.6622 21.252C49.4756 21.1493 49.2376 21.098 48.9482 21.098H46.0362V23.492ZM46.0362 19.474H48.8082C49.0602 19.474 49.2702 19.4273 49.4382 19.334C49.6156 19.2313 49.7462 19.1007 49.8302 18.942C49.9236 18.774 49.9702 18.5827 49.9702 18.368C49.9702 18.004 49.8676 17.7287 49.6622 17.542C49.4662 17.3553 49.2049 17.262 48.8782 17.262H46.0362V19.474ZM53.0737 25.2L56.7697 15.596H59.3457L63.0417 25.2H60.7877L60.1017 23.31H55.9157L55.2297 25.2H53.0737ZM56.5177 21.63H59.4997L58.6457 19.264C58.6084 19.1613 58.5617 19.04 58.5057 18.9C58.4591 18.7507 58.4077 18.5873 58.3517 18.41C58.2957 18.2327 58.2397 18.06 58.1837 17.892C58.1371 17.7147 58.0904 17.556 58.0437 17.416H57.9597C57.9131 17.5933 57.8524 17.8033 57.7777 18.046C57.7031 18.2793 57.6284 18.508 57.5537 18.732C57.4791 18.9467 57.4184 19.124 57.3717 19.264L56.5177 21.63ZM68.2639 25.368C67.2652 25.368 66.4112 25.1953 65.7019 24.85C64.9925 24.4953 64.4512 23.9493 64.0779 23.212C63.7139 22.4747 63.5319 21.5367 63.5319 20.398C63.5319 18.718 63.9425 17.472 64.7639 16.66C65.5945 15.8387 66.7612 15.428 68.2639 15.428C69.0852 15.428 69.8225 15.568 70.4759 15.848C71.1292 16.128 71.6425 16.548 72.0159 17.108C72.3985 17.668 72.5899 18.3727 72.5899 19.222H70.4899C70.4899 18.774 70.3965 18.396 70.2099 18.088C70.0325 17.78 69.7759 17.5467 69.4399 17.388C69.1132 17.22 68.7305 17.136 68.2919 17.136C67.6945 17.136 67.1999 17.2527 66.8079 17.486C66.4252 17.7193 66.1405 18.0647 65.9539 18.522C65.7765 18.97 65.6879 19.5207 65.6879 20.174V20.608C65.6879 21.28 65.7812 21.8447 65.9679 22.302C66.1545 22.75 66.4345 23.0907 66.8079 23.324C67.1905 23.548 67.6805 23.66 68.2779 23.66C68.7445 23.66 69.1505 23.5807 69.4959 23.422C69.8412 23.2633 70.1072 23.03 70.2939 22.722C70.4805 22.414 70.5739 22.036 70.5739 21.588H72.5899C72.5899 22.4373 72.4032 23.142 72.0299 23.702C71.6659 24.262 71.1572 24.682 70.5039 24.962C69.8505 25.2327 69.1039 25.368 68.2639 25.368ZM74.2334 25.2V15.596H76.3194V19.964L80.4074 15.596H82.9834L79.3154 19.502L83.0534 25.2H80.5614L77.8734 20.944L76.3194 22.344V25.2H74.2334Z" fill="#E8E0D0"/>
</svg>
