<svg width="99" height="40" viewBox="0 0 99 40" fill="none" xmlns="http://www.w3.org/2000/svg">
<mask id="path-1-inside-1_5_2336" fill="white">
<path d="M0 19.6C0 8.77522 8.77522 0 19.6 0H78.8C89.6248 0 98.4 8.77522 98.4 19.6C98.4 30.4248 89.6248 39.2 78.8 39.2H19.6C8.77524 39.2 0 30.4248 0 19.6Z"/>
</mask>
<path d="M0 19.6C0 8.77522 8.77522 0 19.6 0H78.8C89.6248 0 98.4 8.77522 98.4 19.6C98.4 30.4248 89.6248 39.2 78.8 39.2H19.6C8.77524 39.2 0 30.4248 0 19.6Z" fill="#14D4FF"/>
<path d="M0 19.6M98.4 19.6M98.4 19.6M0 19.6M19.6 0V1.6H78.8V0V-1.6H19.6V0ZM98.4 19.6M78.8 39.2V37.6H19.6V39.2V40.8H78.8V39.2ZM0 19.6M19.6 39.2V37.6C9.65889 37.6 1.6 29.5411 1.6 19.6H0H-1.6C-1.6 31.3084 7.89158 40.8 19.6 40.8V39.2ZM98.4 19.6H96.8C96.8 29.5411 88.7411 37.6 78.8 37.6V39.2V40.8C90.5084 40.8 100 31.3084 100 19.6H98.4ZM78.8 0V1.6C88.7411 1.6 96.8 9.65888 96.8 19.6H98.4H100C100 7.89156 90.5084 -1.6 78.8 -1.6V0ZM19.6 0V-1.6C7.89156 -1.6 -1.6 7.89157 -1.6 19.6H0H1.6C1.6 9.65888 9.65887 1.6 19.6 1.6V0Z" fill="#14D4FF" mask="url(#path-1-inside-1_5_2336)"/>
<path d="M25.6211 25.2L23.1011 15.596H25.3131L26.7131 21.322C26.7411 21.406 26.7691 21.532 26.7971 21.7C26.8251 21.8587 26.8531 22.0267 26.8811 22.204C26.9091 22.3813 26.9324 22.54 26.9511 22.68H27.0211C27.0398 22.5773 27.0538 22.4607 27.0631 22.33C27.0818 22.1993 27.1004 22.0733 27.1191 21.952C27.1471 21.8213 27.1704 21.7 27.1891 21.588C27.2171 21.476 27.2358 21.3873 27.2451 21.322L28.5471 15.596H31.0391L32.3691 21.322C32.3971 21.4153 32.4251 21.5413 32.4531 21.7C32.4811 21.8587 32.5091 22.0267 32.5371 22.204C32.5651 22.3813 32.5884 22.54 32.6071 22.68H32.6771C32.6958 22.5773 32.7144 22.4653 32.7331 22.344C32.7611 22.2227 32.7844 22.1013 32.8031 21.98C32.8311 21.8493 32.8591 21.728 32.8871 21.616C32.9151 21.504 32.9384 21.406 32.9571 21.322L34.3431 15.596H36.3451L33.8111 25.2H31.4311L30.0171 19.292C29.9891 19.1613 29.9564 19.012 29.9191 18.844C29.8911 18.6667 29.8631 18.494 29.8351 18.326C29.8071 18.158 29.7838 18.0087 29.7651 17.878H29.7091C29.6904 18.0087 29.6671 18.1627 29.6391 18.34C29.6204 18.5173 29.5924 18.69 29.5551 18.858C29.5271 19.026 29.4991 19.1707 29.4711 19.292L28.0711 25.2H25.6211ZM41.7945 25.368C40.7772 25.368 39.8998 25.186 39.1625 24.822C38.4252 24.458 37.8605 23.9073 37.4685 23.17C37.0765 22.4327 36.8805 21.5087 36.8805 20.398C36.8805 19.2687 37.0765 18.34 37.4685 17.612C37.8605 16.8747 38.4252 16.3287 39.1625 15.974C39.8998 15.61 40.7772 15.428 41.7945 15.428C42.8305 15.428 43.7125 15.61 44.4405 15.974C45.1778 16.3287 45.7425 16.8747 46.1345 17.612C46.5265 18.34 46.7225 19.2687 46.7225 20.398C46.7225 21.5087 46.5265 22.4327 46.1345 23.17C45.7425 23.9073 45.1778 24.458 44.4405 24.822C43.7125 25.186 42.8305 25.368 41.7945 25.368ZM41.7945 23.66C42.2518 23.66 42.6532 23.5947 42.9985 23.464C43.3438 23.3333 43.6332 23.1373 43.8665 22.876C44.0998 22.6147 44.2772 22.2973 44.3985 21.924C44.5198 21.5413 44.5805 21.1073 44.5805 20.622V20.188C44.5805 19.6933 44.5198 19.2547 44.3985 18.872C44.2772 18.4893 44.0998 18.172 43.8665 17.92C43.6332 17.6587 43.3438 17.4627 42.9985 17.332C42.6532 17.2013 42.2518 17.136 41.7945 17.136C41.3465 17.136 40.9498 17.2013 40.6045 17.332C40.2592 17.4627 39.9698 17.6587 39.7365 17.92C39.5032 18.172 39.3258 18.4893 39.2045 18.872C39.0925 19.2547 39.0365 19.6933 39.0365 20.188V20.622C39.0365 21.1073 39.0925 21.5413 39.2045 21.924C39.3258 22.2973 39.5032 22.6147 39.7365 22.876C39.9698 23.1373 40.2592 23.3333 40.6045 23.464C40.9498 23.5947 41.3465 23.66 41.7945 23.66ZM48.4161 25.2V15.596H53.6801C54.3894 15.596 54.9774 15.722 55.4441 15.974C55.9201 16.226 56.2747 16.5807 56.5081 17.038C56.7414 17.486 56.8581 18.004 56.8581 18.592C56.8581 19.2173 56.7181 19.7727 56.4381 20.258C56.1581 20.734 55.7521 21.098 55.2201 21.35L57.1801 25.2H54.8701L53.1761 21.7H50.5021V25.2H48.4161ZM50.5021 20.048H53.4001C53.8201 20.048 54.1467 19.922 54.3801 19.67C54.6134 19.4087 54.7301 19.0587 54.7301 18.62C54.7301 18.34 54.6787 18.102 54.5761 17.906C54.4734 17.7007 54.3241 17.5467 54.1281 17.444C53.9321 17.3413 53.6894 17.29 53.4001 17.29H50.5021V20.048ZM58.6426 25.2V15.596H60.7286V19.964L64.8166 15.596H67.3926L63.7246 19.502L67.4626 25.2H64.9706L62.2826 20.944L60.7286 22.344V25.2H58.6426ZM72.5251 25.368C71.9651 25.368 71.4331 25.312 70.9291 25.2C70.4251 25.088 69.9771 24.9107 69.5851 24.668C69.2025 24.416 68.8991 24.1033 68.6751 23.73C68.4605 23.3473 68.3531 22.8853 68.3531 22.344C68.3531 22.2973 68.3531 22.2507 68.3531 22.204C68.3531 22.148 68.3578 22.106 68.3671 22.078H70.4391C70.4298 22.106 70.4251 22.1433 70.4251 22.19C70.4251 22.2367 70.4251 22.2787 70.4251 22.316C70.4251 22.6147 70.5045 22.8667 70.6631 23.072C70.8311 23.2773 71.0738 23.4313 71.3911 23.534C71.7085 23.6367 72.0771 23.688 72.4971 23.688C72.7678 23.688 73.0058 23.674 73.2111 23.646C73.4258 23.6087 73.6125 23.562 73.7711 23.506C73.9391 23.4407 74.0745 23.366 74.1771 23.282C74.2891 23.198 74.3685 23.1 74.4151 22.988C74.4711 22.876 74.4991 22.75 74.4991 22.61C74.4991 22.358 74.4151 22.1527 74.2471 21.994C74.0885 21.8353 73.8645 21.7 73.5751 21.588C73.2951 21.476 72.9778 21.3733 72.6231 21.28C72.2685 21.1867 71.9045 21.0933 71.5311 21C71.1578 20.8973 70.7938 20.776 70.4391 20.636C70.0845 20.4867 69.7671 20.3093 69.4871 20.104C69.2071 19.8987 68.9831 19.6373 68.8151 19.32C68.6471 19.0027 68.5631 18.62 68.5631 18.172C68.5631 17.696 68.6611 17.2853 68.8571 16.94C69.0625 16.5947 69.3471 16.31 69.7111 16.086C70.0751 15.862 70.4951 15.6987 70.9711 15.596C71.4471 15.484 71.9651 15.428 72.5251 15.428C73.0478 15.428 73.5425 15.484 74.0091 15.596C74.4758 15.6987 74.8865 15.8667 75.2411 16.1C75.5958 16.3333 75.8711 16.6273 76.0671 16.982C76.2725 17.3367 76.3751 17.7567 76.3751 18.242V18.41H74.3451V18.298C74.3451 18.046 74.2705 17.8313 74.1211 17.654C73.9718 17.4767 73.7618 17.3367 73.4911 17.234C73.2205 17.1313 72.9031 17.08 72.5391 17.08C72.1471 17.08 71.8111 17.1173 71.5311 17.192C71.2605 17.2667 71.0505 17.3787 70.9011 17.528C70.7611 17.668 70.6911 17.836 70.6911 18.032C70.6911 18.256 70.7705 18.4427 70.9291 18.592C71.0971 18.732 71.3211 18.858 71.6011 18.97C71.8905 19.0727 72.2125 19.166 72.5671 19.25C72.9218 19.334 73.2858 19.4273 73.6591 19.53C74.0325 19.6327 74.3965 19.754 74.7511 19.894C75.1058 20.034 75.4231 20.2113 75.7031 20.426C75.9831 20.6313 76.2071 20.888 76.3751 21.196C76.5431 21.504 76.6271 21.8727 76.6271 22.302C76.6271 23.0393 76.4498 23.632 76.0951 24.08C75.7405 24.528 75.2551 24.8547 74.6391 25.06C74.0231 25.2653 73.3185 25.368 72.5251 25.368Z" fill="#0C0D11"/>
</svg>
