<svg width="85" height="40" viewBox="0 0 85 40" fill="none" xmlns="http://www.w3.org/2000/svg">
<mask id="path-1-inside-1_5_2334" fill="white">
<path d="M0 19.6C0 8.77522 8.77522 0 19.6 0H65.2C76.0248 0 84.8 8.77522 84.8 19.6C84.8 30.4248 76.0248 39.2 65.2 39.2H19.6C8.77521 39.2 0 30.4248 0 19.6Z"/>
</mask>
<path d="M0 19.6M84.8 19.6M84.8 19.6M0 19.6M19.6 0V1.6H65.2V0V-1.6H19.6V0ZM84.8 19.6M65.2 39.2V37.6H19.6V39.2V40.8H65.2V39.2ZM0 19.6M19.6 39.2V37.6C9.65886 37.6 1.6 29.5411 1.6 19.6H0H-1.6C-1.6 31.3084 7.89155 40.8 19.6 40.8V39.2ZM84.8 19.6H83.2C83.2 29.5411 75.1411 37.6 65.2 37.6V39.2V40.8C76.9084 40.8 86.4 31.3084 86.4 19.6H84.8ZM65.2 0V1.6C75.1411 1.6 83.2 9.65887 83.2 19.6H84.8H86.4C86.4 7.89157 76.9085 -1.6 65.2 -1.6V0ZM19.6 0V-1.6C7.89157 -1.6 -1.6 7.89156 -1.6 19.6H0H1.6C1.6 9.65888 9.65888 1.6 19.6 1.6V0Z" fill="#D62A5B" mask="url(#path-1-inside-1_5_2334)"/>
<path d="M24.2875 25.2V15.596H29.2435C29.7942 15.596 30.2702 15.694 30.6715 15.89C31.0728 16.0767 31.3808 16.3427 31.5955 16.688C31.8195 17.0333 31.9315 17.444 31.9315 17.92C31.9315 18.284 31.8662 18.62 31.7355 18.928C31.6048 19.236 31.4228 19.4927 31.1895 19.698C30.9562 19.9033 30.6902 20.0573 30.3915 20.16V20.216C30.7275 20.2907 31.0308 20.426 31.3015 20.622C31.5722 20.818 31.7868 21.0793 31.9455 21.406C32.1135 21.7233 32.1975 22.1153 32.1975 22.582C32.1975 23.2073 32.0668 23.7113 31.8055 24.094C31.5442 24.4767 31.1942 24.7567 30.7555 24.934C30.3168 25.1113 29.8128 25.2 29.2435 25.2H24.2875ZM25.6175 24.052H29.2295C29.7055 24.052 30.0928 23.9307 30.3915 23.688C30.6902 23.436 30.8395 23.0207 30.8395 22.442C30.8395 22.0873 30.7742 21.7933 30.6435 21.56C30.5128 21.3173 30.3215 21.14 30.0695 21.028C29.8175 20.9067 29.5002 20.846 29.1175 20.846H25.6175V24.052ZM25.6175 19.712H28.9915C29.3088 19.712 29.5842 19.6513 29.8175 19.53C30.0508 19.3993 30.2328 19.222 30.3635 18.998C30.5035 18.7647 30.5735 18.5033 30.5735 18.214C30.5735 17.71 30.4382 17.3413 30.1675 17.108C29.8968 16.8653 29.5375 16.744 29.0895 16.744H25.6175V19.712ZM34.0629 25.2V15.596H35.3929V24.038H40.1669V25.2H34.0629ZM45.4569 25.368C44.4583 25.368 43.5996 25.186 42.8809 24.822C42.1716 24.458 41.6209 23.9073 41.2289 23.17C40.8463 22.4327 40.6549 21.5087 40.6549 20.398C40.6549 19.278 40.8463 18.354 41.2289 17.626C41.6209 16.8887 42.1716 16.338 42.8809 15.974C43.5996 15.61 44.4583 15.428 45.4569 15.428C46.4556 15.428 47.3096 15.61 48.0189 15.974C48.7376 16.338 49.2883 16.8887 49.6709 17.626C50.0629 18.354 50.2589 19.278 50.2589 20.398C50.2589 21.5087 50.0629 22.4327 49.6709 23.17C49.2883 23.9073 48.7376 24.458 48.0189 24.822C47.3096 25.186 46.4556 25.368 45.4569 25.368ZM45.4569 24.22C45.9796 24.22 46.4509 24.15 46.8709 24.01C47.3003 23.87 47.6596 23.6507 47.9489 23.352C48.2476 23.044 48.4763 22.6613 48.6349 22.204C48.7936 21.7373 48.8729 21.1867 48.8729 20.552V20.258C48.8729 19.614 48.7936 19.0633 48.6349 18.606C48.4763 18.1393 48.2476 17.7567 47.9489 17.458C47.6596 17.15 47.3003 16.926 46.8709 16.786C46.4509 16.646 45.9796 16.576 45.4569 16.576C44.9249 16.576 44.4489 16.646 44.0289 16.786C43.6089 16.926 43.2496 17.15 42.9509 17.458C42.6523 17.7567 42.4236 18.1393 42.2649 18.606C42.1156 19.0633 42.0409 19.614 42.0409 20.258V20.552C42.0409 21.1867 42.1156 21.7373 42.2649 22.204C42.4236 22.6613 42.6523 23.044 42.9509 23.352C43.2496 23.6507 43.6089 23.87 44.0289 24.01C44.4489 24.15 44.9249 24.22 45.4569 24.22ZM56.5041 25.368C54.9548 25.368 53.7741 24.962 52.9621 24.15C52.1595 23.338 51.7581 22.0873 51.7581 20.398C51.7581 19.2967 51.9448 18.3773 52.3181 17.64C52.6915 16.9027 53.2421 16.352 53.9701 15.988C54.6981 15.6147 55.5848 15.428 56.6301 15.428C57.2835 15.428 57.8761 15.498 58.4081 15.638C58.9401 15.778 59.3975 15.9927 59.7801 16.282C60.1721 16.562 60.4708 16.9167 60.6761 17.346C60.8908 17.7753 60.9981 18.284 60.9981 18.872H59.6401C59.6401 18.4613 59.5655 18.1113 59.4161 17.822C59.2668 17.5233 59.0521 17.2807 58.7721 17.094C58.5015 16.9073 58.1841 16.7767 57.8201 16.702C57.4561 16.618 57.0688 16.576 56.6581 16.576C56.0981 16.576 55.5988 16.646 55.1601 16.786C54.7215 16.926 54.3528 17.1453 54.0541 17.444C53.7555 17.7427 53.5268 18.1253 53.3681 18.592C53.2095 19.0587 53.1301 19.614 53.1301 20.258V20.552C53.1301 21.42 53.2608 22.1247 53.5221 22.666C53.7928 23.2073 54.1801 23.604 54.6841 23.856C55.1881 24.0987 55.7948 24.22 56.5041 24.22C57.2228 24.22 57.8155 24.122 58.2821 23.926C58.7488 23.7207 59.0941 23.4127 59.3181 23.002C59.5515 22.5913 59.6681 22.0733 59.6681 21.448V21.28H56.2801V20.146H61.0121V25.2H60.0041L59.8641 23.982C59.6121 24.3087 59.3135 24.5747 58.9681 24.78C58.6228 24.9853 58.2401 25.1347 57.8201 25.228C57.4095 25.3213 56.9708 25.368 56.5041 25.368Z" fill="#D62A5B"/>
</svg>
