<svg width="69" height="40" viewBox="0 0 69 40" fill="none" xmlns="http://www.w3.org/2000/svg">
<mask id="path-1-inside-1_5_2332" fill="white">
<path d="M0 19.6C0 8.77522 8.77522 0 19.6 0H49.2C60.0248 0 68.8 8.77522 68.8 19.6C68.8 30.4248 60.0248 39.2 49.2 39.2H19.6C8.77521 39.2 0 30.4248 0 19.6Z"/>
</mask>
<path d="M0 19.6M68.8 19.6M68.8 19.6M0 19.6M19.6 0V1.6H49.2V0V-1.6H19.6V0ZM68.8 19.6M49.2 39.2V37.6H19.6V39.2V40.8H49.2V39.2ZM0 19.6M19.6 39.2V37.6C9.65887 37.6 1.6 29.5411 1.6 19.6H0H-1.6C-1.6 31.3084 7.89155 40.8 19.6 40.8V39.2ZM68.8 19.6H67.2C67.2 29.5411 59.1411 37.6 49.2 37.6V39.2V40.8C60.9084 40.8 70.4 31.3084 70.4 19.6H68.8ZM49.2 0V1.6C59.1411 1.6 67.2 9.65887 67.2 19.6H68.8H70.4C70.4 7.89157 60.9085 -1.6 49.2 -1.6V0ZM19.6 0V-1.6C7.89156 -1.6 -1.6 7.89156 -1.6 19.6H0H1.6C1.6 9.65888 9.65888 1.6 19.6 1.6V0Z" fill="#F4B942" mask="url(#path-1-inside-1_5_2332)"/>
<path d="M24.0336 25.2V15.596H28.9896C29.5403 15.596 30.0163 15.694 30.4176 15.89C30.8189 16.0767 31.1269 16.3427 31.3416 16.688C31.5656 17.0333 31.6776 17.444 31.6776 17.92C31.6776 18.284 31.6123 18.62 31.4816 18.928C31.3509 19.236 31.1689 19.4927 30.9356 19.698C30.7023 19.9033 30.4363 20.0573 30.1376 20.16V20.216C30.4736 20.2907 30.7769 20.426 31.0476 20.622C31.3183 20.818 31.5329 21.0793 31.6916 21.406C31.8596 21.7233 31.9436 22.1153 31.9436 22.582C31.9436 23.2073 31.8129 23.7113 31.5516 24.094C31.2903 24.4767 30.9403 24.7567 30.5016 24.934C30.0629 25.1113 29.5589 25.2 28.9896 25.2H24.0336ZM25.3636 24.052H28.9756C29.4516 24.052 29.8389 23.9307 30.1376 23.688C30.4363 23.436 30.5856 23.0207 30.5856 22.442C30.5856 22.0873 30.5203 21.7933 30.3896 21.56C30.2589 21.3173 30.0676 21.14 29.8156 21.028C29.5636 20.9067 29.2463 20.846 28.8636 20.846H25.3636V24.052ZM25.3636 19.712H28.7376C29.0549 19.712 29.3303 19.6513 29.5636 19.53C29.7969 19.3993 29.9789 19.222 30.1096 18.998C30.2496 18.7647 30.3196 18.5033 30.3196 18.214C30.3196 17.71 30.1843 17.3413 29.9136 17.108C29.6429 16.8653 29.2836 16.744 28.8356 16.744H25.3636V19.712ZM33.809 25.2V15.596H35.139V25.2H33.809ZM41.8534 25.368C40.8547 25.368 39.9961 25.186 39.2774 24.822C38.5681 24.458 38.0174 23.9073 37.6254 23.17C37.2427 22.4327 37.0514 21.5087 37.0514 20.398C37.0514 19.278 37.2427 18.354 37.6254 17.626C38.0174 16.8887 38.5681 16.338 39.2774 15.974C39.9961 15.61 40.8547 15.428 41.8534 15.428C42.8521 15.428 43.7061 15.61 44.4154 15.974C45.1341 16.338 45.6847 16.8887 46.0674 17.626C46.4594 18.354 46.6554 19.278 46.6554 20.398C46.6554 21.5087 46.4594 22.4327 46.0674 23.17C45.6847 23.9073 45.1341 24.458 44.4154 24.822C43.7061 25.186 42.8521 25.368 41.8534 25.368ZM41.8534 24.22C42.3761 24.22 42.8474 24.15 43.2674 24.01C43.6967 23.87 44.0561 23.6507 44.3454 23.352C44.6441 23.044 44.8727 22.6613 45.0314 22.204C45.1901 21.7373 45.2694 21.1867 45.2694 20.552V20.258C45.2694 19.614 45.1901 19.0633 45.0314 18.606C44.8727 18.1393 44.6441 17.7567 44.3454 17.458C44.0561 17.15 43.6967 16.926 43.2674 16.786C42.8474 16.646 42.3761 16.576 41.8534 16.576C41.3214 16.576 40.8454 16.646 40.4254 16.786C40.0054 16.926 39.6461 17.15 39.3474 17.458C39.0487 17.7567 38.8201 18.1393 38.6614 18.606C38.5121 19.0633 38.4374 19.614 38.4374 20.258V20.552C38.4374 21.1867 38.5121 21.7373 38.6614 22.204C38.8201 22.6613 39.0487 23.044 39.3474 23.352C39.6461 23.6507 40.0054 23.87 40.4254 24.01C40.8454 24.15 41.3214 24.22 41.8534 24.22Z" fill="#F4B942"/>
</svg>
