<svg width="210" height="29" viewBox="0 0 210 29" fill="none" xmlns="http://www.w3.org/2000/svg">
<path d="M78.6889 25.2182L78.0634 25.4528C76.4734 25.7395 75.0528 25.8829 73.8017 25.8829C70.6738 25.8829 68.3931 24.9185 66.9595 22.9896C66.3078 22.1034 65.8387 21.0999 65.5519 19.9791C65.4216 19.4578 65.3564 18.8843 65.3564 18.2588C65.3564 15.9911 66.0211 13.9319 67.3505 12.0813C68.2627 10.804 69.7745 9.47471 71.8858 8.09324C72.5375 7.65012 73.4628 7.11578 74.6618 6.49021L74.5445 10.0481C73.7365 10.4131 73.0588 10.7389 72.5114 11.0256C70.5826 12.0422 69.1359 13.189 68.1715 14.4662C67.5981 15.2482 67.3114 16.1735 67.3114 17.2422C69.579 16.1475 72.0292 15.0136 74.6618 13.8407C75.4959 13.4758 76.9686 12.8241 79.0799 11.8858C78.9235 12.7199 78.8193 13.3845 78.7671 13.8798L78.5325 15.561C77.2293 16.0562 75.0789 16.9294 72.0813 18.1806C70.8563 18.7019 69.5269 19.2753 68.0933 19.9009C68.1454 20.344 68.2106 20.6959 68.2888 20.9565C68.7059 22.4162 69.6833 23.2633 71.2212 23.4979C71.8728 23.6022 72.6548 23.6543 73.5671 23.6543C74.0623 23.6543 74.6879 23.5501 75.4438 23.3415C75.5741 23.3155 76.8513 22.8984 79.2754 22.0904C79.2754 23.0548 79.0799 24.0974 78.6889 25.2182Z" fill="#E8E0D0"/>
<path d="M61.4748 26.4303C61.2924 26.4303 60.5495 26.313 59.2462 26.0784C58.5946 25.896 57.4477 25.2574 55.8056 24.1626C55.2582 23.7977 54.4762 23.2503 53.4597 22.5205L53.8116 21.8949C54.7239 22.4944 55.5058 22.9897 56.1575 23.3806C57.7735 24.3711 58.6988 24.8664 58.9334 24.8664C59.0638 24.8924 59.2332 24.9055 59.4417 24.9055C60.0152 24.9055 60.3931 24.6969 60.5756 24.2799C60.732 23.915 60.5886 23.3415 60.1455 22.5596C59.6763 21.934 58.2818 20.5004 55.962 18.2588L53.4206 15.8347C52.2476 14.7139 51.4918 13.958 51.1529 13.567C50.2667 12.5504 49.7454 11.6642 49.589 10.9083C49.5108 10.6737 49.4717 10.4391 49.4717 10.2046C49.4717 9.52685 49.7323 8.86218 50.2536 8.21054C50.775 7.55891 51.3484 7.14186 51.974 6.9594C52.5995 6.75088 53.3424 6.64662 54.2026 6.64662C55.3234 6.64662 56.3008 6.86817 57.1349 7.31129C58.2557 7.91079 59.3635 8.86218 60.4583 10.1655C60.6668 10.4 60.8753 10.6998 61.0838 11.0647L60.4974 11.7685C58.8813 9.81357 57.4738 8.83612 56.2748 8.83612C55.988 8.83612 55.7013 8.87521 55.4146 8.95341C54.7108 9.2662 54.359 9.72234 54.359 10.3218C54.359 10.9995 54.6978 11.7424 55.3755 12.5504C56.8352 14.2186 58.7249 16.4081 61.0447 19.1189C62.5044 20.8393 63.4428 22.1034 63.8598 22.9115C63.9901 23.2503 64.0553 23.6413 64.0553 24.0844C64.0553 24.5536 63.9901 24.9576 63.8598 25.2964C63.547 26.0523 62.752 26.4303 61.4748 26.4303Z" fill="#E8E0D0"/>
<path d="M36.4722 26.6649C33.1619 26.6649 30.1253 25.8438 27.3623 24.2017C24.1302 22.2728 22.5142 19.7445 22.5142 16.6166C22.5142 14.0362 23.7783 12.1203 26.3067 10.8692C28.2616 9.87872 30.6726 9.38348 33.5398 9.38348C37.1369 9.38348 40.2387 10.0872 42.8452 11.4948C46.338 13.3976 48.0844 15.6392 48.0844 18.2197C48.0844 20.748 46.729 22.8332 44.0182 24.4754C41.6462 25.935 39.1309 26.6649 36.4722 26.6649ZM37.2151 17.5941C35.99 17.5941 34.9083 17.959 33.9699 18.6888C32.9794 19.4969 32.4842 20.5004 32.4842 21.6994C32.4842 22.8723 33.0967 23.7716 34.3218 24.3972C35.2862 24.9185 36.407 25.1791 37.6843 25.1791C39.0136 25.1791 40.1083 24.8403 40.9685 24.1626C41.9329 23.4328 42.4151 22.4292 42.4151 21.152C42.4151 19.953 41.8156 19.0277 40.6166 18.3761C39.6522 17.8547 38.5183 17.5941 37.2151 17.5941Z" fill="#E8E0D0"/>
<path d="M19.3145 8.21059L18.0243 8.0542C18.0243 11.1039 17.3335 14.5836 15.9521 18.4934C15.2483 20.4483 14.2187 22.1426 12.8633 23.5762C11.1169 25.4268 9.57905 26.4303 8.24972 26.5867C7.83267 26.6389 7.58505 26.6649 7.50685 26.6649C6.46423 26.6649 5.43465 26.3 4.41809 25.5702C3.21908 24.71 2.13737 22.9767 1.17295 20.3701C0.781964 19.3014 0.390982 17.8809 0 16.1084C0.0521309 16.1866 0.755898 15.8738 2.1113 15.1701C2.47622 14.9615 3.16695 14.5966 4.18351 14.0753C4.52236 15.7956 5.00457 17.3205 5.63014 18.6498C6.56849 20.6308 7.63718 21.6213 8.83619 21.6213C10.1134 21.6213 11.4036 20.6699 12.7069 18.7671C13.8277 17.1771 14.5315 15.6392 14.8182 14.1535C15.2874 11.8337 15.522 9.74845 15.522 7.8978L7.50685 7.31133L6.72489 0.23456L20.8002 2.73684L19.3145 8.21059Z" fill="#E8E0D0"/>
<path d="M107.021 26.4303C106.839 26.4303 106.096 26.313 104.793 26.0784C104.141 25.896 102.994 25.2574 101.352 24.1626C100.805 23.7977 100.023 23.2503 99.0061 22.5205L99.358 21.8949C100.27 22.4944 101.052 22.9897 101.704 23.3806C103.32 24.3711 104.245 24.8664 104.48 24.8664C104.61 24.8924 104.78 24.9055 104.988 24.9055C105.562 24.9055 105.939 24.6969 106.122 24.2799C106.278 23.915 106.135 23.3415 105.692 22.5596C105.223 21.934 103.828 20.5004 101.508 18.2588L98.967 15.8347C97.794 14.7139 97.0381 13.958 96.6993 13.567C95.8131 12.5504 95.2918 11.6642 95.1354 10.9083C95.0572 10.6737 95.0181 10.4391 95.0181 10.2046C95.0181 9.52685 95.2787 8.86218 95.8 8.21054C96.3213 7.55891 96.8948 7.14186 97.5203 6.9594C98.1459 6.75088 98.8888 6.64662 99.7489 6.64662C100.87 6.64662 101.847 6.86817 102.681 7.31129C103.802 7.91079 104.91 8.86218 106.005 10.1655C106.213 10.4 106.422 10.6998 106.63 11.0647L106.044 11.7685C104.428 9.81357 103.02 8.83612 101.821 8.83612C101.534 8.83612 101.248 8.87521 100.961 8.95341C100.257 9.2662 99.9053 9.72234 99.9053 10.3218C99.9053 10.9995 100.244 11.7424 100.922 12.5504C102.382 14.2186 104.271 16.4081 106.591 19.1189C108.051 20.8393 108.989 22.1034 109.406 22.9115C109.537 23.2503 109.602 23.6413 109.602 24.0844C109.602 24.5536 109.537 24.9576 109.406 25.2964C109.093 26.0523 108.298 26.4303 107.021 26.4303Z" fill="#A2BBCF"/>
<path d="M88.2708 5.2391C87.3585 5.2391 86.5766 5.03058 85.9249 4.61353C85.1169 4.11829 84.7129 3.45362 84.7129 2.61953C84.7129 1.96789 85.169 1.39445 86.0813 0.899206C86.8894 0.482159 87.6453 0.273636 88.349 0.273636C89.2092 0.273636 89.9911 0.456094 90.6949 0.82101C91.5551 1.26412 91.9852 1.87666 91.9852 2.65862C91.9852 3.51878 91.5681 4.18345 90.734 4.65263C90.0302 5.04361 89.2092 5.2391 88.2708 5.2391ZM86.355 26.0784L86.5505 14.8964L92.5716 14.5054L94.1746 26.3521L86.355 26.0784Z" fill="#A2BBCF"/>
<path d="M197.588 26.6649C194.278 26.6649 191.241 25.8438 188.478 24.2017C185.246 22.2728 183.63 19.7445 183.63 16.6166C183.63 14.0362 184.894 12.1203 187.422 10.8692C189.377 9.87872 191.788 9.38348 194.656 9.38348C198.253 9.38348 201.354 10.0872 203.961 11.4948C207.454 13.3976 209.2 15.6392 209.2 18.2197C209.2 20.748 207.845 22.8332 205.134 24.4754C202.762 25.935 200.247 26.6649 197.588 26.6649ZM198.331 17.5941C197.106 17.5941 196.024 17.959 195.086 18.6888C194.095 19.4969 193.6 20.5004 193.6 21.6994C193.6 22.8723 194.212 23.7716 195.438 24.3972C196.402 24.9185 197.523 25.1791 198.8 25.1791C200.129 25.1791 201.224 24.8403 202.084 24.1626C203.049 23.4328 203.531 22.4292 203.531 21.152C203.531 19.953 202.931 19.0277 201.732 18.3761C200.768 17.8547 199.634 17.5941 198.331 17.5941Z" fill="#E8E0D0"/>
<path d="M176.922 5.2391C176.009 5.2391 175.227 5.03058 174.576 4.61353C173.768 4.11829 173.364 3.45362 173.364 2.61953C173.364 1.96789 173.82 1.39445 174.732 0.899206C175.54 0.482159 176.296 0.273636 177 0.273636C177.86 0.273636 178.642 0.456094 179.346 0.82101C180.206 1.26412 180.636 1.87666 180.636 2.65862C180.636 3.51878 180.219 4.18345 179.385 4.65263C178.681 5.04361 177.86 5.2391 176.922 5.2391ZM175.006 26.0784L175.201 14.8964L181.223 14.5054L182.826 26.3521L175.006 26.0784Z" fill="#E8E0D0"/>
<path d="M162.066 26.7823C160.137 26.7823 158.364 26.2479 156.748 25.1792C154.767 23.876 153.777 22.1426 153.777 19.9792C153.777 17.8939 154.024 16.1866 154.52 14.8573C155.145 13.2152 156.214 11.8728 157.726 10.8302C158.664 10.1786 160.215 9.85274 162.378 9.85274C163.682 9.85274 165.063 9.97003 166.523 10.2046C167.018 10.2828 167.644 10.4131 168.4 10.5956L167.696 0L170.706 1.36844L171.606 24.8664C170.511 25.2835 169.612 25.5963 168.908 25.8048C166.588 26.4564 164.307 26.7823 162.066 26.7823ZM169.025 16.9686L166.914 17.0859C164.359 17.2944 162.6 17.8679 161.636 18.8062C161.036 19.3797 160.736 20.2659 160.736 21.4649C160.736 22.0644 160.984 22.6118 161.479 23.107C161.974 23.5762 162.522 23.876 163.121 24.0063C163.617 24.1366 164.177 24.2018 164.803 24.2018C165.767 24.2018 166.836 24.0714 168.009 23.8108C168.452 23.7065 168.947 23.5632 169.494 23.3807L169.025 16.9686Z" fill="#E8E0D0"/>
<path d="M150.802 25.9611L147.557 26.2739L147.439 23.0288C146.918 23.8889 146.306 24.6448 145.602 25.2965C145.054 25.7917 144.259 26.4173 143.217 27.1732C142.174 27.9291 141.301 28.307 140.597 28.307C139.815 28.307 139.085 28.1506 138.408 27.8378C138.173 27.7336 137.952 27.6033 137.743 27.4469C136.701 26.691 136.179 25.1922 136.179 22.9506C136.179 20.9696 136.205 19.5621 136.257 18.728C136.283 18.1806 136.336 17.6202 136.414 17.0467L137.274 9.61809L141.848 8.56244L141.536 26.1566L146.227 22.8333L148.378 7.70228L151.897 6.80302L150.802 25.9611Z" fill="#E8E0D0"/>
<path d="M128.665 27.6815L126.632 22.9506L116.584 24.0063L114.707 27.5251L113.183 26.3131L124.599 0L135.664 24.6319L128.665 27.6815ZM122.41 12.9024L117.483 22.2469L126.007 21.3476L122.41 12.9024Z" fill="#E8E0D0"/>
</svg>
